<?xml version="1.0" encoding="utf-8"?>
<!-- Generator: Adobe Illustrator 22.1.0, SVG Export Plug-In . SVG Version: 6.00 Build 0)  -->
<svg version="1.1" id="icones" xmlns="http://www.w3.org/2000/svg" xmlns:xlink="http://www.w3.org/1999/xlink" x="0px" y="0px"
     width="500px" height="500px" viewBox="0 0 500 500" style="enable-background:new 0 0 500 500;" xml:space="preserve">
<style type="text/css">
    .st0{fill:#BDD7D8;}
</style>
<g>
    <path class="st0" d="M158.6,245.4l29.1-109c7.3-27.6-4.4-40.7-21.8-40.7c-21.8,0-52.3,20.3-61,55.2L99,171.3l-14.5,55.2
        c-7.3,24.7,2.9,29.1,30.5,36.3S152.8,270.1,158.6,245.4z"/>
    <circle class="st0" cx="274.9" cy="53.6" r="43.6"/>
    <path class="st0" d="M402.8,187.3l1.5-13.1c0-5.8-4.4-11.6-10.2-11.6c-4.4,0-8.7,4.4-10.2,8.7l-1.5,16c-24.7,0-40.7,0-48-2.9
        c-37.8-14.5-37.8-65.4-72.7-77c-2.9-1.5-7.3-1.5-11.6-1.5c-1.5,0-2.9,0-4.4,0c-20.3,1.5-37.8,14.5-42.1,34.9l-33.4,122.1
        c-4.4,14.5-1.5,30.5,8.7,42.1c-1.5,37.8-5.8,56.7-14.5,71.2c-10.2,17.4-32,34.9-68.3,71.2c-23.3,23.3,13.1,58.1,34.9,33.4
        c33.4-34.9,56.7-52.3,74.1-79.9c11.6-20.3,17.4-42.1,20.3-75.6l4.4,4.4c14.5,17.4,21.8,27.6,24.7,37.8c5.8,16,5.8,40.7,8.7,98.8
        c1.5,33.4,50.9,30.5,49.4-2.9c-2.9-56.7-1.5-82.8-11.6-111.9c-7.3-18.9-17.4-33.4-34.9-53.8l-7.3-11.6c0,0,0,0,0-1.5l26.2-97.4
        c13.1,14.5,23.3,23.3,37.8,27.6c16,5.8,32,5.8,56.7,4.4l-27.6,255.8c-1.5,13.1,17.4,14.5,18.9,1.5l27.6-257.2h1.5
        C421.7,222.2,424.6,190.2,402.8,187.3z"/>
</g>
</svg>

